<svg id="Layer_1" data-name="Layer 1" xmlns="http://www.w3.org/2000/svg" viewBox="0 0 940.44 879.07"><defs><style>.cls-1{fill:#2e2e2f;}</style></defs><path class="cls-1" d="M531.14,61.42c-8.56,0-17,.21-25.48.83-12.06-1-24.24-1.55-36.61-1.55-242.18,0-439.18,197-439.18,439.17s197,439.18,439.18,439.18c8.56,0,17-.21,25.47-.83,12.07,1,24.24,1.55,36.62,1.55,242.17,0,439.17-197,439.17-439.18S773.31,61.42,531.14,61.42ZM60.82,499.87c0-162.34,95.2-302.82,232.79-368.52C172.31,209.53,91.86,345.88,91.86,500.59c0,150.9,76.53,284.26,192.77,363.37C151.89,796.5,60.82,658.61,60.82,499.87ZM706.17,869.32a404.55,404.55,0,0,1-175,39.51c-12.07,0-24-.52-35.89-1.66C286.8,889,122.8,713.68,122.8,500.59,122.8,284.2,292,106.8,504.94,93.29c8.66-.62,17.43-.93,26.2-.93a404.4,404.4,0,0,1,184,43.94c133,67.35,224.23,205.35,224.23,364.29C939.37,663.14,844,803.72,706.17,869.32Z" transform="translate(-29.87 -60.7)"/><path class="cls-1" d="M546.06,434.06l7.22-194.95c57.76,19.6,105.21,69.11,131,141.31l7.21,1V187.54L648.17,201H554.31l2.06-54.67H492.42V202c-114.49,10.32-167.1,85.61-167.1,172.26,0,113.46,84.58,154.72,166.07,190.82V780.63c-73.23-26.81-133.06-108.3-158.84-205.25H322.23L333.57,791c39.2,17.53,103.15,28.88,157.82,32v52.6h39.2l2.06-52.6C654.36,816.74,740,759,740,622.82,740,510.39,636.83,472.22,546.06,434.06Zm-53.64-23.72C446,386.61,413,357.73,413,311.32c0-49.51,33-79.43,79.42-81.49ZM540.9,788.89h-7.22l7.22-201.14C596.6,614.57,642,646.55,642,708.43,642,764.13,588.35,788.89,540.9,788.89Z" transform="translate(-29.87 -60.7)"/></svg>