<svg id="ewar8mo0dad91" xmlns="http://www.w3.org/2000/svg" xmlns:xlink="http://www.w3.org/1999/xlink" viewBox="0 0 940.440000 879.070000" shape-rendering="geometricPrecision" text-rendering="geometricPrecision"><style><![CDATA[#ewar8mo0dad92_to {animation: ewar8mo0dad92_to__to 2300ms linear infinite normal forwards}@keyframes ewar8mo0dad92_to__to { 0% {transform: translate(470.220001px,439.534996px)} 4.347826% {transform: translate(470.220001px,439.534996px);animation-timing-function: cubic-bezier(0,0,0.060000,0.975000)} 56.521739% {transform: translate(470.219999px,1112.913469px);animation-timing-function: cubic-bezier(0.645000,0.015000,0.265000,1.010000)} 91.304348% {transform: translate(470.219999px,383.045580px)} 100% {transform: translate(470.219999px,439.534996px)} }]]></style><g id="ewar8mo0dad92_to" transform="translate(470.220001,439.534996)"><g id="ewar8mo0dad92" transform="translate(-470.220001,-439.535004)"><path id="ewar8mo0dad93" d="M531.140000,61.420000C522.580000,61.420000,514.140000,61.630000,505.660000,62.250000C493.600000,61.250000,481.420000,60.700000,469.050000,60.700000C226.870000,60.700000,29.870000,257.700000,29.870000,499.870000C29.870000,742.040000,226.870000,939.050000,469.050000,939.050000C477.610000,939.050000,486.050000,938.840000,494.520000,938.220000C506.590000,939.220000,518.760000,939.770000,531.140000,939.770000C773.310000,939.770000,970.310000,742.770000,970.310000,500.590000C970.310000,258.410000,773.310000,61.420000,531.140000,61.420000ZM60.820000,499.870000C60.820000,337.530000,156.020000,197.050000,293.610000,131.350000C172.310000,209.530000,91.860000,345.880000,91.860000,500.590000C91.860000,651.490000,168.390000,784.850000,284.630000,863.960000C151.890000,796.500000,60.820000,658.610000,60.820000,499.870000ZM706.170000,869.320000C651.528891,895.421493,591.725181,908.923462,531.170000,908.830000C519.100000,908.830000,507.170000,908.310000,495.280000,907.170000C286.800000,889,122.800000,713.680000,122.800000,500.590000C122.800000,284.200000,292,106.800000,504.940000,93.290000C513.600000,92.670000,522.370000,92.360000,531.140000,92.360000C595.084692,92.253396,658.143215,107.312045,715.140000,136.300000C848.140000,203.650000,939.370000,341.650000,939.370000,500.590000C939.370000,663.140000,844,803.720000,706.170000,869.320000Z" transform="matrix(1 0 0 1 -29.87000000000000 -60.70000000000003)" fill="rgb(46,46,47)" stroke="none" stroke-width="1"/><path id="ewar8mo0dad94" d="M546.060000,434.060000L553.280000,239.110000C611.040000,258.710000,658.490000,308.220000,684.280000,380.420000L691.490000,381.420000L691.490000,187.540000L648.170000,201L554.310000,201L556.370000,146.330000L492.420000,146.330000L492.420000,202C377.930000,212.320000,325.320000,287.610000,325.320000,374.260000C325.320000,487.720000,409.900000,528.980000,491.390000,565.080000L491.390000,780.630000C418.160000,753.820000,358.330000,672.330000,332.550000,575.380000L322.230000,575.380000L333.570000,791C372.770000,808.530000,436.720000,819.880000,491.390000,823L491.390000,875.600000L530.590000,875.600000L532.650000,823C654.360000,816.740000,740,759,740,622.820000C740,510.390000,636.830000,472.220000,546.060000,434.060000ZM492.420000,410.340000C446,386.610000,413,357.730000,413,311.320000C413,261.810000,446,231.890000,492.420000,229.830000ZM540.900000,788.890000L533.680000,788.890000L540.900000,587.750000C596.600000,614.570000,642,646.550000,642,708.430000C642,764.130000,588.350000,788.890000,540.900000,788.890000Z" transform="matrix(1 0 0 1 -29.87000000000000 -60.70000000000000)" fill="rgb(46,46,47)" stroke="none" stroke-width="1"/></g></g></svg>