<svg id="Layer_1" data-name="Layer 1" xmlns="http://www.w3.org/2000/svg" xmlns:xlink="http://www.w3.org/1999/xlink" viewBox="0 0 400 200"><defs><style>.cls-1{fill:none;}.cls-2{fill:#ee744d;}.cls-3{fill:url(#New_Pattern_2);}</style><pattern id="New_Pattern_2" data-name="New Pattern 2" width="400" height="400" patternUnits="userSpaceOnUse" viewBox="0 0 400 400"><rect class="cls-1" width="400" height="400"/><path class="cls-2" d="M780,377.68c.7,20.21-12.84,43.92-39.24,68.16-31.45,28.88-77.58,55.3-129.9,74.41-48.1,17.57-96.21,27-136.81,27-3.55,0-7-.08-10.47-.22-43.42-1.85-71.87-15.28-80.1-37.83s4.86-51.16,36.87-80.55c31.45-28.88,77.58-55.31,129.9-74.41s104.62-28.63,147.28-26.82c2.19.09,4.35.22,6.46.36l-51.82-53.17,80.29,41L797,252.71,756,333l62.91,64.56Zm-.63-5.93,14.82,7.56L775,359.67l-16.15-16.58L750,333.92l28.8-56.44L733.37,321.7l-56.45-28.8,34.72,35.63,5.6,5.75,3.91,4-3.74,7.33L701.8,376.2l-9.46,18.53,12.43-12.11L724,363.88l13.73-13.37,35.77,18.25ZM774.78,375l-36.13-18.43-13.16,12.82,7.53,28-18.28,6.67L707,387.43,674.09,419.5,679.47,409l-17.38,6.42L666,425.56l38.36-14,6.39,17.88-67.43,24.62-26-71.22,67.43-24.63,6.36,17.08-38.38,14.11,3.52,9.62,24.92-9.15,3.27,9.31,14.67-28.74-7.19-15.5,18.56-6.78,4.56-8.94-5.76-5.91q-5.77-.58-12-.85-5.06-.21-10.29-.21c-40,0-87.5,9.36-135.07,26.73-51.71,18.89-97.25,45-128.23,73.4-30.43,27.94-43,54.63-35.56,75.15s34.36,32.8,75.62,34.55c42,1.79,93.65-7.63,145.36-26.52s97.25-44.95,128.23-73.4C764,417.73,777,394.25,774.78,375Z"/><polygon class="cls-2" points="200.29 448.02 181.34 396.14 151.79 406.94 177.83 478.25 239.29 455.8 232.06 435.99 200.29 448.02"/><path class="cls-2" d="M380,377.68c.7,20.21-12.84,43.92-39.24,68.16-31.45,28.88-77.58,55.3-129.9,74.41-48.1,17.57-96.21,27-136.81,27-3.55,0-7-.08-10.47-.22-43.42-1.85-71.87-15.28-80.1-37.83s4.86-51.16,36.87-80.55c31.45-28.88,77.58-55.31,129.9-74.41s104.62-28.63,147.28-26.82c2.19.09,4.35.22,6.46.36l-51.82-53.17,80.29,41L397,252.71,356,333l62.91,64.56Zm-.63-5.93,14.82,7.56L375,359.67l-16.15-16.58L350,333.92l28.8-56.44L333.37,321.7l-56.45-28.8,34.72,35.63,5.6,5.75,3.91,4-3.74,7.33L301.8,376.2l-9.46,18.53,12.43-12.11L324,363.88l13.73-13.37,35.77,18.25ZM374.78,375l-36.13-18.43-13.16,12.82,7.53,28-18.28,6.67L307,387.43,274.09,419.5,279.47,409l-17.38,6.42L266,425.56l38.36-14,6.39,17.88-67.43,24.62-26-71.22,67.43-24.63,6.36,17.08-38.38,14.11,3.52,9.62,24.92-9.15,3.27,9.31,14.67-28.74-7.19-15.5,18.56-6.78,4.56-8.94-5.76-5.91q-5.78-.58-12-.85-5.06-.21-10.29-.21c-40,0-87.5,9.36-135.07,26.73-51.71,18.89-97.25,45-128.23,73.4-30.43,27.94-43,54.63-35.56,75.15s34.36,32.8,75.62,34.55c42,1.79,93.65-7.63,145.36-26.52s97.25-44.95,128.23-73.4C364,417.73,377,394.25,374.78,375Z"/><path class="cls-2" d="M-20,377.68c.7,20.21-12.84,43.92-39.24,68.16-31.45,28.88-77.58,55.3-129.9,74.41-48.1,17.57-96.21,27-136.81,27-3.55,0-7-.08-10.47-.22-43.42-1.85-71.87-15.28-80.1-37.83s4.86-51.16,36.87-80.55c31.45-28.88,77.58-55.31,129.9-74.41s104.62-28.63,147.28-26.82c2.19.09,4.35.22,6.46.36l-51.82-53.17,80.29,41L-3,252.71-44,333l62.91,64.56Zm-.63-5.93,14.82,7.56L-25,359.67l-16.15-16.58L-50,333.92l28.8-56.44L-66.63,321.7l-56.45-28.8,34.72,35.63,5.6,5.75,3.91,4-3.74,7.33L-98.2,376.2l-9.46,18.53,12.43-12.11L-76,363.88l13.73-13.37,35.77,18.25ZM-25.22,375l-36.13-18.43-13.16,12.82,7.53,28-18.28,6.67L-93,387.43l-32.91,32.07,5.38-10.55-17.38,6.42,3.94,10.19,38.36-14,6.39,17.88-67.43,24.62-26-71.22,67.43-24.63,6.36,17.08-38.38,14.11,3.52,9.62,24.92-9.15,3.27,9.31,14.67-28.74-7.19-15.5,18.56-6.78,4.56-8.94-5.76-5.91q-5.77-.58-12-.85-5.05-.21-10.29-.21c-40,0-87.5,9.36-135.07,26.73-51.71,18.89-97.25,45-128.23,73.4-30.43,27.94-43,54.63-35.56,75.15s34.36,32.8,75.62,34.55c42,1.79,93.65-7.63,145.36-26.52s97.25-44.95,128.23-73.4C-36,417.73-23,394.25-25.22,375Z"/><path class="cls-2" d="M780,177.68c.7,20.21-12.84,43.92-39.24,68.16-31.45,28.88-77.58,55.3-129.9,74.41-48.1,17.57-96.21,27-136.81,27-3.55,0-7-.08-10.47-.22-43.42-1.85-71.87-15.28-80.1-37.83s4.86-51.16,36.87-80.55c31.45-28.88,77.58-55.31,129.9-74.41s104.62-28.63,147.28-26.82c2.19.09,4.35.22,6.46.36L652.15,74.65l80.29,41L797,52.71,756,133l62.91,64.56Zm-.63-5.93,14.82,7.56L775,159.67l-16.15-16.58L750,133.92l28.8-56.44L733.37,121.7,676.92,92.9l34.72,35.63,5.6,5.75,3.91,4-3.74,7.33L701.8,176.2l-9.46,18.53,12.43-12.11L724,163.88l13.73-13.37,35.77,18.25ZM774.78,175l-36.13-18.43-13.16,12.82,7.53,28-18.28,6.67L707,187.43,674.09,219.5,679.47,209l-17.38,6.42L666,225.56l38.36-14,6.39,17.88-67.43,24.62-26-71.22,67.43-24.63,6.36,17.08-38.38,14.11,3.52,9.62,24.92-9.15,3.27,9.31,14.67-28.74-7.19-15.5,18.56-6.78,4.56-8.94-5.76-5.91q-5.77-.59-12-.85-5.06-.21-10.29-.21c-40,0-87.5,9.36-135.07,26.73-51.71,18.89-97.25,45-128.23,73.4-30.43,27.94-43,54.63-35.56,75.15s34.36,32.8,75.62,34.55c42,1.79,93.65-7.63,145.36-26.52s97.25-44.95,128.23-73.4C764,217.73,777,194.25,774.78,175Z"/><path class="cls-2" d="M44.33,273.29c-11.58,1.39-12.28-7.09-1.81-9.43a7.47,7.47,0,0,1,8.23,3.41l22.48-12c-9.48-12.86-22.5-12.7-36.94-7.82-25.62,8.64-34.54,25.07-25.18,40,6.75,10.78,22.57,9.06,30.27,8.5,10.17-.75,17.6-2.12,19.15,2.63,1.4,4.32-9.23,8.51-13.64,7.25a7.43,7.43,0,0,1-4.29-3.42L19.54,315.22S25.57,327,41,327c13,0,31.32-7.27,40.07-14.34a23.17,23.17,0,0,0,7.9-12.9c1.43-5.63-.23-12.11-3.76-17.24C78.36,272.64,66.2,270.67,44.33,273.29Z"/><path class="cls-2" d="M124.65,216.81l49.58,62.91-29,10.58-7.12-10.58-16.69,6.14,1.35,12.6-28.86,10.4-3-79.73Zm4.08,47.59-13.1-20.16-.48.18,3.45,23.68Z"/><polygon class="cls-2" points="200.29 248.02 181.34 196.14 151.79 206.94 177.83 278.25 239.29 255.8 232.06 235.99 200.29 248.02"/><polygon class="cls-2" points="315.6 209.7 321.49 225.43 342.05 217.92 336.16 202.2 315.6 209.7"/><path class="cls-2" d="M380,177.68c.7,20.21-12.84,43.92-39.24,68.16-31.45,28.88-77.58,55.3-129.9,74.41-48.1,17.57-96.21,27-136.81,27-3.55,0-7-.08-10.47-.22-43.42-1.85-71.87-15.28-80.1-37.83s4.86-51.16,36.87-80.55c31.45-28.88,77.58-55.31,129.9-74.41s104.62-28.63,147.28-26.82c2.19.09,4.35.22,6.46.36L252.15,74.65l80.29,41L397,52.71,356,133l62.91,64.56Zm-.63-5.93,14.82,7.56L375,159.67l-16.15-16.58L350,133.92l28.8-56.44L333.37,121.7,276.92,92.9l34.72,35.63,5.6,5.75,3.91,4-3.74,7.33L301.8,176.2l-9.46,18.53,12.43-12.11L324,163.88l13.73-13.37,35.77,18.25ZM374.78,175l-36.13-18.43-13.16,12.82,7.53,28-18.28,6.67L307,187.43,274.09,219.5,279.47,209l-17.38,6.42L266,225.56l38.36-14,6.39,17.88-67.43,24.62-26-71.22,67.43-24.63,6.36,17.08-38.38,14.11,3.52,9.62,24.92-9.15,3.27,9.31,14.67-28.74-7.19-15.5,18.56-6.78,4.56-8.94-5.76-5.91q-5.78-.59-12-.85-5.06-.21-10.29-.21c-40,0-87.5,9.36-135.07,26.73-51.71,18.89-97.25,45-128.23,73.4-30.43,27.94-43,54.63-35.56,75.15s34.36,32.8,75.62,34.55c42,1.79,93.65-7.63,145.36-26.52s97.25-44.95,128.23-73.4C364,217.73,377,194.25,374.78,175Z"/><path class="cls-2" d="M-20,177.68c.7,20.21-12.84,43.92-39.24,68.16-31.45,28.88-77.58,55.3-129.9,74.41-48.1,17.57-96.21,27-136.81,27-3.55,0-7-.08-10.47-.22-43.42-1.85-71.87-15.28-80.1-37.83s4.86-51.16,36.87-80.55c31.45-28.88,77.58-55.31,129.9-74.41s104.62-28.63,147.28-26.82c2.19.09,4.35.22,6.46.36l-51.82-53.17,80.29,41L-3,52.71-44,133l62.91,64.56Zm-.63-5.93,14.82,7.56L-25,159.67l-16.15-16.58L-50,133.92l28.8-56.44L-66.63,121.7l-56.45-28.8,34.72,35.63,5.6,5.75,3.91,4-3.74,7.33L-98.2,176.2l-9.46,18.53,12.43-12.11L-76,163.88l13.73-13.37,35.77,18.25ZM-25.22,175l-36.13-18.43-13.16,12.82,7.53,28-18.28,6.67L-93,187.43l-32.91,32.07,5.38-10.55-17.38,6.42,3.94,10.19,38.36-14,6.39,17.88-67.43,24.62-26-71.22,67.43-24.63,6.36,17.08-38.38,14.11,3.52,9.62,24.92-9.15,3.27,9.31,14.67-28.74-7.19-15.5,18.56-6.78,4.56-8.94-5.76-5.91q-5.77-.59-12-.85-5.05-.21-10.29-.21c-40,0-87.5,9.36-135.07,26.73-51.71,18.89-97.25,45-128.23,73.4-30.43,27.94-43,54.63-35.56,75.15s34.36,32.8,75.62,34.55c42,1.79,93.65-7.63,145.36-26.52s97.25-44.95,128.23-73.4C-36,217.73-23,194.25-25.22,175Z"/><path class="cls-2" d="M780-22.32c.7,20.21-12.84,43.92-39.24,68.16-31.45,28.88-77.58,55.3-129.9,74.41-48.1,17.57-96.21,27-136.81,27-3.55,0-7-.08-10.47-.22-43.42-1.85-71.87-15.28-80.1-37.83s4.86-51.16,36.87-80.55c31.45-28.88,77.58-55.31,129.9-74.41S654.85-74.35,697.51-72.54c2.19.09,4.35.22,6.46.36l-51.82-53.17,80.29,41L797-147.29,756-67,818.94-2.44Zm-.63-5.93,14.82,7.56L775-40.33,758.88-56.91,750-66.08l28.8-56.44L733.37-78.3l-56.45-28.8,34.72,35.63,5.6,5.75,3.91,4-3.74,7.33L701.8-23.8,692.34-5.27l12.43-12.11L724-36.12l13.73-13.37L773.5-31.24ZM774.78-25,738.65-43.41,725.49-30.59l7.53,28L714.74,4.12,707-12.57,674.09,19.5,679.47,9l-17.38,6.42L666,25.56l38.36-14,6.39,17.88L643.35,54.05l-26-71.22L684.77-41.8l6.36,17.08L652.75-10.61,656.27-1l24.92-9.15,3.27,9.31,14.67-28.74-7.19-15.5,18.56-6.78,4.56-8.94L709.3-66.7q-5.77-.58-12-.85-5.06-.21-10.29-.21c-40,0-87.5,9.36-135.07,26.73-51.71,18.89-97.25,45-128.23,73.4-30.43,27.94-43,54.63-35.56,75.15s34.36,32.8,75.62,34.55c42,1.79,93.65-7.63,145.36-26.52s97.25-44.95,128.23-73.4C764,17.73,777-5.75,774.78-25Z"/><path class="cls-2" d="M44.33,73.29c-11.58,1.39-12.28-7.09-1.81-9.43a7.47,7.47,0,0,1,8.23,3.41l22.48-12c-9.48-12.86-22.5-12.7-36.94-7.82-25.62,8.64-34.54,25.07-25.18,40,6.75,10.78,22.57,9.06,30.27,8.5,10.17-.75,17.6-2.12,19.15,2.63,1.4,4.32-9.23,8.51-13.64,7.25a7.43,7.43,0,0,1-4.29-3.42L19.54,115.22S25.57,127,41,127c13,0,31.32-7.27,40.07-14.34a23.17,23.17,0,0,0,7.9-12.9c1.43-5.63-.23-12.11-3.76-17.24C78.36,72.64,66.2,70.67,44.33,73.29Z"/><path class="cls-2" d="M124.65,16.81l49.58,62.91-29,10.58-7.12-10.58-16.69,6.14,1.35,12.6-28.86,10.4-3-79.73Zm4.08,47.59-13.1-20.16-.48.18L118.6,68.1Z"/><polygon class="cls-2" points="200.29 48.02 181.34 -3.86 151.79 6.94 177.83 78.25 239.29 55.8 232.06 35.99 200.29 48.02"/><polygon class="cls-2" points="315.6 9.7 321.49 25.43 342.05 17.92 336.16 2.2 315.6 9.7"/><path class="cls-2" d="M380-22.32c.7,20.21-12.84,43.92-39.24,68.16-31.45,28.88-77.58,55.3-129.9,74.41-48.1,17.57-96.21,27-136.81,27-3.55,0-7-.08-10.47-.22-43.42-1.85-71.87-15.28-80.1-37.83s4.86-51.16,36.87-80.55C51.78-.19,97.91-26.62,150.23-45.72S254.85-74.35,297.51-72.54c2.19.09,4.35.22,6.46.36l-51.82-53.17,80.29,41L397-147.29,356-67,418.94-2.44Zm-.63-5.93,14.82,7.56L375-40.33,358.88-56.91,350-66.08l28.8-56.44L333.37-78.3l-56.45-28.8,34.72,35.63,5.6,5.75,3.91,4-3.74,7.33L301.8-23.8,292.34-5.27l12.43-12.11L324-36.12l13.73-13.37L373.5-31.24ZM374.78-25,338.65-43.41,325.49-30.59l7.53,28L314.74,4.12,307-12.57,274.09,19.5,279.47,9l-17.38,6.42L266,25.56l38.36-14,6.39,17.88L243.35,54.05l-26-71.22L284.77-41.8l6.36,17.08L252.75-10.61,256.27-1l24.92-9.15,3.27,9.31,14.67-28.74-7.19-15.5,18.56-6.78,4.56-8.94L309.3-66.7q-5.78-.58-12-.85-5.06-.21-10.29-.21c-40,0-87.5,9.36-135.07,26.73-51.71,18.89-97.25,45-128.23,73.4C-6.72,60.31-19.34,87-11.85,107.52s34.36,32.8,75.62,34.55c42,1.79,93.65-7.63,145.36-26.52s97.25-44.95,128.23-73.4C364,17.73,377-5.75,374.78-25Z"/><path class="cls-2" d="M-20-22.32c.7,20.21-12.84,43.92-39.24,68.16-31.45,28.88-77.58,55.3-129.9,74.41-48.1,17.57-96.21,27-136.81,27-3.55,0-7-.08-10.47-.22-43.42-1.85-71.87-15.28-80.1-37.83s4.86-51.16,36.87-80.55c31.45-28.88,77.58-55.31,129.9-74.41s104.62-28.63,147.28-26.82c2.19.09,4.35.22,6.46.36l-51.82-53.17,80.29,41L-3-147.29-44-67,18.94-2.44Zm-.63-5.93,14.82,7.56L-25-40.33-41.12-56.91-50-66.08l28.8-56.44L-66.63-78.3l-56.45-28.8,34.72,35.63,5.6,5.75,3.91,4-3.74,7.33L-98.2-23.8l-9.46,18.53,12.43-12.11L-76-36.12l13.73-13.37L-26.5-31.24ZM-25.22-25-61.35-43.41-74.51-30.59l7.53,28L-85.26,4.12-93-12.57-125.91,19.5-120.53,9l-17.38,6.42L-134,25.56l38.36-14,6.39,17.88-67.43,24.62-26-71.22,67.43-24.63,6.36,17.08-38.38,14.11L-143.73-1l24.92-9.15,3.27,9.31,14.67-28.74-7.19-15.5,18.56-6.78,4.56-8.94L-90.7-66.7q-5.77-.58-12-.85-5.05-.21-10.29-.21c-40,0-87.5,9.36-135.07,26.73-51.71,18.89-97.25,45-128.23,73.4-30.43,27.94-43,54.63-35.56,75.15s34.36,32.8,75.62,34.55c42,1.79,93.65-7.63,145.36-26.52S-93.62,70.6-62.64,42.15C-36,17.73-23-5.75-25.22-25Z"/></pattern></defs><rect class="cls-3" width="400" height="200"/></svg>