<svg id="Layer_1" data-name="Layer 1" xmlns="http://www.w3.org/2000/svg" viewBox="0 0 581.51 569.1"><defs><style>.cls-1{fill:none;stroke:#305ca2;stroke-miterlimit:10;}</style></defs><path class="cls-1" d="M30.09,350.62c-7.2-88.06-24.5-49.41,9.73-198.92S388.36,11.2,435.2,50.83s187.33,132.39,125.19,308S317.21,629,137.08,521.86,36.21,210.24,61.43,179.62,143.39,18.4,328.92,58s219.31,91,223.59,152.21,34.9,307-168.65,345.78-279.2-15.24-306.22-55.77S37.3,438.68,30.09,350.62Z" transform="translate(-6.9 -13.09)"/><path class="cls-1" d="M40.39,329.26A28.49,28.49,0,0,1,34,333.65c-3.68,1.79-8.29,2.74-12-.19s.6-3.73,4.91-3.53,8.64,1.51,5,2.68A12.64,12.64,0,0,1,21.67,331c-2.29-1.64-2.55-3.81,1.93-5,8.95-2.35,12.73.79,2.76,2.64s-4.64-6.54,1.56-6.13,8.87,3.25-.82,2-6.33-3.66.12-4.65,7.38,1.28.42,1.67a23.66,23.66,0,0,1-9.78-2,33.08,33.08,0,0,1-4.56-2.24" transform="translate(-6.9 -13.09)"/><path class="cls-1" d="M34.44,293s-.65.67-1.74,1.61a30.29,30.29,0,0,1-4.41,3.13c-3.56,2-8.08,3.38-11.95.65s.39-3.87,4.69-3.87,8.7.93,5.16,2.34a12.27,12.27,0,0,1-10.31-.95c-2.38-1.57-2.78-3.88,1.65-5.19,8.86-2.59,12.76.22,2.9,2.55-4.93,1.18-6.19-.47-5.43-2.37s3.63-4,6.73-3.79c6.18.35,9,2.89-.77,2-4.89-.48-6.44-1.49-6-2.41s2.91-1.79,6.13-2.23c6.44-.86,7.33,1.22.39,1.66a20.31,20.31,0,0,1-9.76-2.26,22.46,22.46,0,0,1-3.27-1.88c-.77-.54-1.22-.91-1.22-.91" transform="translate(-6.9 -13.09)"/><path class="cls-1" d="M32.09,260.33A36.34,36.34,0,0,1,25,263.27c-3.94,1.11-8.67,1.56-11.77-2.13s1.28-3.75,5.47-2.67,8.23,3,4.46,3.5a11.93,11.93,0,0,1-9.79-3.44c-2-2.18-1.67-4.52,2.94-4.64,9.26-.2,12.22,3.48,2.09,3.21-5.09-.12-5.83-2.05-4.57-3.69a7.2,7.2,0,0,1,7.49-1.93c5.93,2,7.9,5.11-1.25,1.71s-5.18-5.26,1.27-4.46,6.8,3.06,0,1.71a21.21,21.21,0,0,1-8.91-4.6,30.45,30.45,0,0,1-2.71-2.51c-.63-.67-1-1.1-1-1.1" transform="translate(-6.9 -13.09)"/><path class="cls-1" d="M36.79,226.11a31.42,31.42,0,0,1-7.43,2.21c-4.05.63-8.77.35-11.41-3.6-5.27-7.92,17.37,2,9.75,2.05s-15.18-9.38-6-8.79,11.89,4.68,1.84,3.39c-5-.64-5.64-2.6-4.27-4.1A7.3,7.3,0,0,1,26.93,216c5.72,2.46,7.41,5.86-1.41,1.59s-4.71-5.59,1.67-4.34S33.7,216.9,27,215s-12-9-12-9" transform="translate(-6.9 -13.09)"/><path class="cls-1" d="M43.78,191.23a30.59,30.59,0,0,1-7.51,2c-4.07.49-8.77,0-11.27-4-5-8,17.29,2.56,9.67,2.39s-14.86-9.83-5.66-9,11.74,5,1.72,3.44-2.18-7.87,3.51-5.24,7.27,6.07-1.43,1.56-4.61-5.71,1.73-4.31,6.44,3.79-.2,1.71-11.79-9.25-11.79-9.25" transform="translate(-6.9 -13.09)"/><path class="cls-1" d="M51.53,156.27A30.39,30.39,0,0,1,44,158.15c-4.07.44-8.76-.11-11.22-4.17-4.91-8.1,17.25,2.8,9.64,2.53a12.36,12.36,0,0,1-9.08-5,4.32,4.32,0,0,1-.76-1.71,2.05,2.05,0,0,1,.28-1.48c.54-.83,1.85-1.26,4.14-1,4.58.62,7.45,2,8,2.94s-1.39,1.46-6.39.59-5.44-2.94-3.94-4.41a6.93,6.93,0,0,1,7.67-.68c2.77,1.5,4.53,3,4.53,3.65s-1.77.29-6-2.17-5.33-4.11-4.49-4.75,3.42-.39,6.52.59c6.19,2,6.08,4.18-.38,1.66a19.57,19.57,0,0,1-7.8-6.22,27.86,27.86,0,0,1-2.89-4.49" transform="translate(-6.9 -13.09)"/><path class="cls-1" d="M63.09,126.43a38.7,38.7,0,0,1-7.6-.58c-4-.77-8.47-2.4-9.6-7.14s2.87-2.79,6.08.05,6,6.35,2.44,5.12a11.86,11.86,0,0,1-7.23-7.48c-.7-2.79.66-4.87,4.8-2.84s6.43,4.27,6.62,5.31-1.76,1-6.23-1.45S48.12,112.91,50,112s5.37-.51,7.5,1.78,3.32,4.32,3.13,4.88-1.76-.28-5-4-3.69-5.51-2.73-5.89,3.35.7,6,2.6c5.26,3.81,4.48,5.9-.87,1.47a20,20,0,0,1-5.5-8.37,23.37,23.37,0,0,1-1.33-5.12" transform="translate(-6.9 -13.09)"/><path class="cls-1" d="M83.37,101.32s-.9-.24-2.23-.67a34.41,34.41,0,0,1-4.93-2C72.6,96.77,68.82,93.9,69,89c.1-2.46,1.07-2.87,2.18-2.28a12.74,12.74,0,0,1,3.66,4.09,19.54,19.54,0,0,1,2.44,5c.31,1.21,0,1.71-1.58.61a11.68,11.68,0,0,1-3.61-4.32,10.62,10.62,0,0,1-1.19-4.86c.09-2.87,1.91-4.49,5.34-1.41s5,5.86,4.93,6.92-2,.47-5.58-3.08-2.86-5.52-.83-5.9,5.33,1,6.76,3.77,2,5,1.67,5.53-1.62-.75-3.76-5.17-2.07-6.28-1.06-6.38,3,1.55,5.09,4.07c4.08,5,2.77,6.91-1.22,1.21a20.76,20.76,0,0,1-3.16-9.52A26.73,26.73,0,0,1,79,73.55c0-.93.1-1.5.1-1.5" transform="translate(-6.9 -13.09)"/><path class="cls-1" d="M110,81.42s-.84-.42-2.06-1.11a33.71,33.71,0,0,1-4.41-3c-3.14-2.6-6.16-6.25-4.92-10.92s3.8-1,5.3,3,2.19,8.43-.35,5.64a11.94,11.94,0,0,1-2.74-10c.67-2.78,2.74-4,5.48-.25,5.43,7.45,4.17,12.06-1.42,3.6-2.81-4.22-1.67-6,.38-5.92s5,2.06,5.86,5c1.76,5.94.36,9.45-2.12-.06-2.33-9.5,1.38-7.23,4.4-1.48s1.37,7.31-1.42.94a21,21,0,0,1-1.3-9.91,26.9,26.9,0,0,1,.89-5.14" transform="translate(-6.9 -13.09)"/><path class="cls-1" d="M140.48,66.27a33,33,0,0,1-5.8-5.07c-2.72-3.06-5.09-7.16-3.16-11.53s3.87-.47,4.76,3.76.89,8.72-1.21,5.54a12.12,12.12,0,0,1-1.18-10.3c1.05-2.68,3.26-3.48,5.43.59,4.31,8.17,2.34,12.53-1.93,3.33-2.15-4.6-.78-6.15,1.24-5.77a7.17,7.17,0,0,1,5.07,5.81c.91,6.2-1,9.4-2.09-.33-.5-4.88.11-6.65,1.09-6.41s2.35,2.48,3.47,5.53c2.23,6.1.31,7.42-1.55.73a21.2,21.2,0,0,1,.08-10,30,30,0,0,1,1.54-5" transform="translate(-6.9 -13.09)"/><path class="cls-1" d="M173.16,55.08s-.71-.59-1.72-1.61a32.8,32.8,0,0,1-3.5-4.1c-2.34-3.33-4.2-7.69-1.8-11.83s3.89,0,4.3,4.32-.12,8.73-1.84,5.33a12.07,12.07,0,0,1,0-10.34c1.34-2.52,3.58-3.12,5.3,1.16,3.41,8.58,1,12.74-2.27,3.13-1.62-4.8-.1-6.21,1.85-5.63a7.27,7.27,0,0,1,4.42,6.35c.24,6.23-2.06,9.21-2.05-.58s3.07-6.67,4.63-.36-.46,7.43-1.61.57a21.68,21.68,0,0,1,1.1-9.94,27.7,27.7,0,0,1,2-4.76" transform="translate(-6.9 -13.09)"/><path class="cls-1" d="M207.1,47.12A32.16,32.16,0,0,1,202.4,41c-2-3.55-3.49-8-.74-11.93s3.86.35,3.9,4.67-.89,8.7-2.31,5.16a12.17,12.17,0,0,1,.92-10.31c1.54-2.42,3.82-2.8,5.17,1.63,2.67,8.86-.16,12.73-2.53,2.89s6.52-5,6.18,1.28-2.84,9-2-.74,3.61-6.42,4.65,0-1.09,7.39-1.66.45a21.59,21.59,0,0,1,1.92-9.8,31.1,31.1,0,0,1,2.38-4.58" transform="translate(-6.9 -13.09)"/><path class="cls-1" d="M241.76,41.88a31.81,31.81,0,0,1-4.24-6.46c-1.78-3.69-2.87-8.29.16-12s3.81.65,3.53,4.94-1.54,8.62-2.69,5a12.28,12.28,0,0,1,1.68-10.23c1.72-2.26,4-2.48,5,2,2,9-1.09,12.71-2.74,2.71s6.85-4.52,6.07,1.7-3.48,8.8-1.92-.87,4-6.14,4.63.34-1.62,7.26-1.69.3a21.78,21.78,0,0,1,2.61-9.62,30.43,30.43,0,0,1,2.69-4.41" transform="translate(-6.9 -13.09)"/><path class="cls-1" d="M276.79,39.08a32.11,32.11,0,0,1-3.8-6.75c-1.53-3.79-2.31-8.45.95-11.93s3.77.91,3.2,5.18-2.11,8.48-3,4.78a12.14,12.14,0,0,1,2.35-10.07c1.86-2.15,4.16-2.24,4.89,2.33,1.42,9.12-1.92,12.62-2.91,2.53-.5-5,1.29-6.07,3.05-5.06a7.27,7.27,0,0,1,2.9,7.15c-1.14,6.13-4.06,8.54-1.87-1s4.44-5.85,4.6.65-2.09,7.15-1.7.21a21.94,21.94,0,0,1,3.23-9.46,29.4,29.4,0,0,1,3-4.22" transform="translate(-6.9 -13.09)"/><path class="cls-1" d="M312,38.54a31.88,31.88,0,0,1-3.37-7c-1.27-3.9-1.75-8.6,1.73-11.84s3.7,1.12,2.86,5.36-2.66,8.34-3.32,4.59a12.23,12.23,0,0,1,3-9.91c2-2.06,4.3-1.94,4.73,2.65.83,9.2-2.74,12.45-3.07,2.32s7.38-3.58,5.8,2.48-4.6,8.27-1.8-1.11,4.82-5.57,4.55.93-2.55,7-1.71.1a21.68,21.68,0,0,1,3.84-9.21,31,31,0,0,1,3.25-4" transform="translate(-6.9 -13.09)"/><path class="cls-1" d="M347,40.35a31.69,31.69,0,0,1-2.85-7.2c-1-4-1.16-8.71,2.54-11.68s3.62,1.39,2.48,5.55-3.23,8.13-3.63,4.34a12.17,12.17,0,0,1,3.69-9.67c2.14-1.9,4.44-1.65,4.53,3,.16,9.25-3.62,12.21-3.22,2.1s7.63-3,5.6,2.9-5.19,7.9-1.71-1.25,5.22-5.2,4.47,1.27-3.07,6.79-1.72,0a21.52,21.52,0,0,1,4.53-8.9A29.91,29.91,0,0,1,365.27,17" transform="translate(-6.9 -13.09)"/><path class="cls-1" d="M381.5,44.9a32.44,32.44,0,0,1-2.16-7.4c-.62-4-.38-8.77,3.6-11.41s3.49,1.74,2,5.75-4,7.81-4,4a12.14,12.14,0,0,1,4.58-9.31c2.32-1.65,4.62-1.18,4.24,3.42-.78,9.2-4.8,11.83-3.42,1.78.67-5,2.67-5.6,4.16-4.2a7.18,7.18,0,0,1,1.12,7.64c-2.57,5.67-5.94,7.35-1.56-1.43s5.77-4.58,4.3,1.75-3.76,6.44-1.7-.21a21,21,0,0,1,5.49-8.36,29.43,29.43,0,0,1,4-3.3" transform="translate(-6.9 -13.09)"/><path class="cls-1" d="M413.93,53.51a39,39,0,0,1-.62-7.63c.09-4,1-8.75,5.52-10.6,2.25-.9,3.1-.3,3,1a12.65,12.65,0,0,1-2.13,5.05c-2.31,3.67-5.31,7-4.66,3.2a11.72,11.72,0,0,1,6.23-8.29c2.66-1.15,5-.13,3.6,4.28s-3.26,7-4.25,7.35-1.21-1.57.47-6.36,3.82-4.92,5.05-3.18A6.87,6.87,0,0,1,425.5,46c-2,2.44-3.77,3.9-4.34,3.79s0-1.81,3.17-5.54,5-4.45,5.52-3.5-.24,3.44-1.83,6.27c-3.2,5.66-5.2,5.22-1.55-.67A17.88,17.88,0,0,1,434.26,40a22.42,22.42,0,0,1,5.37-1.48" transform="translate(-6.9 -13.09)"/><path class="cls-1" d="M440.34,71.4s.87-15,10.29-15.84-10.09,14.28-6.51,7.54,15.47-8.84,10.56-1-9.77,8.21-3.84,0,8,1.61,3.1,5.5-8.69,3.76-.76-2,7.17-1.55,3.06,3.5-6.27,4-1.42-1a22,22,0,0,1,8.6-5,31.4,31.4,0,0,1,5-1.29" transform="translate(-6.9 -13.09)"/><path class="cls-1" d="M467.66,94.07a31.66,31.66,0,0,1,1.91-7.49c1.53-3.79,4.2-7.69,8.95-7.94s2.09,3.26-1.27,5.94-7.4,4.67-5.49,1.37a12.21,12.21,0,0,1,8.69-5.65c2.82-.25,4.53,1.29,1.89,5.08-5.3,7.57-10.12,7.77-3.84-.19s8,2,2.84,5.63-8.85,3.35-.66-2,7.27-1.15,2.88,3.64-6.46,3.7-1.37-1a21.56,21.56,0,0,1,8.87-4.55,29.54,29.54,0,0,1,5.08-1" transform="translate(-6.9 -13.09)"/><path class="cls-1" d="M493.09,118.05a32.58,32.58,0,0,1,2.53-7.3c1.84-3.66,4.78-7.36,9.55-7.21s1.84,3.41-1.74,5.83-7.75,4.06-5.59.93a12.17,12.17,0,0,1,9.12-4.94c1.43,0,2.55.39,2.94,1.25s0,2.2-1.45,4c-5.94,7.09-10.7,6.86-3.81-.53s7.75,2.75,2.33,5.87-9.07,2.57-.47-2.07,7.34-.48,2.53,3.89-6.77,3.13-1.27-1.14a21.77,21.77,0,0,1,9.28-3.76,27.45,27.45,0,0,1,3.68-.43c.92,0,1.47,0,1.47,0" transform="translate(-6.9 -13.09)"/><path class="cls-1" d="M515.93,144.05s.3-.89.83-2.19a31.73,31.73,0,0,1,2.46-4.77c2.2-3.43,5.51-6.8,10.28-6.16s1.43,3.64-2.37,5.62a19,19,0,0,1-5.17,2c-1.25.2-1.71-.21-.47-1.65a12.05,12.05,0,0,1,9.59-3.92c2.82.31,4.23,2.19.89,5.39-6.7,6.37-11.43,5.65-3.73-1,3.84-3.32,5.71-2.41,5.89-.37a7.14,7.14,0,0,1-4.22,6.45c-5.71,2.56-9.33,1.56-.24-2.1s7.41.34,2.1,4.13-7.09,2.34-1.14-1.28a17.47,17.47,0,0,1,4.84-1.94,25.86,25.86,0,0,1,4.79-.67,29.78,29.78,0,0,1,5.18.17" transform="translate(-6.9 -13.09)"/><path class="cls-1" d="M535.18,172.38s.41-.83,1.15-2.06a35.22,35.22,0,0,1,3.12-4.41c2.61-3.08,6.38-6,11-4.72s.94,3.81-3.12,5.27-8.46,2.06-5.59-.46a11.85,11.85,0,0,1,10-2.57c2.77.69,3.92,2.75.18,5.46-7.5,5.36-12.11,4-3.59-1.45,4.26-2.76,6-1.61,5.92.43a7.06,7.06,0,0,1-5.05,5.79c-6,1.74-9.49.28,0-2.1,4.78-1.16,6.63-.79,6.49.24s-2.15,2.66-5,4.17c-5.76,3-7.29,1.29-.91-1.45a20.79,20.79,0,0,1,9.88-1.19,29.69,29.69,0,0,1,5.13.93" transform="translate(-6.9 -13.09)"/><path class="cls-1" d="M550,203a34.64,34.64,0,0,1,5.25-5.71,16.8,16.8,0,0,1,5.32-3.23,8,8,0,0,1,6.24.28c4.3,2.09.33,3.93-3.91,4.72s-8.68.71-5.45-1.33a11.88,11.88,0,0,1,10.27-1c2.63,1.13,3.46,3.36-.67,5.43-8.26,4.08-12.61,2.06-3.32-2,4.64-2,6.18-.63,5.78,1.38s-2.8,4.55-5.91,4.9c-6.22.74-9.43-1.24.37-2.06,4.93-.38,6.65.3,6.36,1.29s-2.56,2.28-5.65,3.29c-6.18,2-7.4.09-.66-1.57a20.65,20.65,0,0,1,9.94.44,29.36,29.36,0,0,1,4.91,1.78" transform="translate(-6.9 -13.09)"/><path class="cls-1" d="M559.42,235.36a35.92,35.92,0,0,1,6.16-4.72,16.29,16.29,0,0,1,5.77-2.26,8,8,0,0,1,6.13,1.34c3.86,2.81-.37,3.93-4.68,4s-8.66-.79-5.13-2.25a11.83,11.83,0,0,1,10.28.81c2.39,1.57,2.8,3.92-1.62,5.24-8.86,2.59-12.77-.15-2.92-2.55,4.93-1.22,6.19.45,5.44,2.36a7,7,0,0,1-6.67,3.8c-6.27-.34-9-2.85.72-2,4.89.48,6.54,1.44,6.11,2.36s-2.93,1.81-6.15,2.27c-6.43.91-7.3-1.2-.37-1.67a20.49,20.49,0,0,1,9.69,2.17,28.15,28.15,0,0,1,4.5,2.61" transform="translate(-6.9 -13.09)"/><path class="cls-1" d="M563.18,268.91a33,33,0,0,1,6.73-3.58c3.8-1.44,8.46-2.23,11.94,1.15a3.29,3.29,0,0,1,1.26,2c0,.51-.39.86-1,1.08a13.09,13.09,0,0,1-5.48,0c-4.2-.69-8.45-2.28-4.75-3.11A12.14,12.14,0,0,1,582,269.06c2,1.95,2,4.33-2.58,4.87-9.19,1.05-12.5-2.34-2.38-3,5.07-.35,6,1.51,4.9,3.26a7.15,7.15,0,0,1-7.27,2.61c-6.09-1.42-8.35-4.37,1.08-1.82s5.67,4.78-.83,4.56-7.07-2.43-.14-1.71a21.27,21.27,0,0,1,9.32,3.78,24.17,24.17,0,0,1,2.94,2.29c.68.62,1.06,1,1.06,1" transform="translate(-6.9 -13.09)"/><path class="cls-1" d="M561.09,302.79a34.07,34.07,0,0,1,7.32-2.46c4-.82,8.76-.84,11.56,3s-1.57,3.59-5.67,2.24-8-3.6-4.16-3.82a12,12,0,0,1,9.48,4.13c1.78,2.26,1.45,4.6-3.16,4.43-9.21-.4-12.06-4.29-2-3.36,5,.44,5.73,2.43,4.43,4s-4.71,2.62-7.58,1.45-4.77-2.57-4.85-3.19,1.72-.46,6.21,1.56,5.62,3.44,4.92,4.17-3.34.77-6.54.19c-6.39-1.17-6.53-3.48.18-1.7a20.92,20.92,0,0,1,8.52,5.12,29.2,29.2,0,0,1,3.47,3.87" transform="translate(-6.9 -13.09)"/><path class="cls-1" d="M554.1,336.29a32.6,32.6,0,0,1,7.54-1.46c4.07-.26,8.75.39,11.05,4.61s-2,3.35-5.87,1.45-7.45-4.67-3.66-4.38a12.23,12.23,0,0,1,8.88,5.42c.73,1.23,1,2.43.4,3.2s-1.9,1.11-4.19.72c-9.13-1.63-11.23-5.84-1.41-3.56,2.46.56,3.82,1.36,4.34,2.18a1.72,1.72,0,0,1-.59,2.33,7.28,7.28,0,0,1-7.74.41c-5.43-3.08-6.7-6.57,1.57-1.43s4,6.13-2.15,4.12-6.06-4.31.37-1.67a21.3,21.3,0,0,1,7.83,6.19,30.57,30.57,0,0,1,3,4.27" transform="translate(-6.9 -13.09)"/><path class="cls-1" d="M542.88,369a31.79,31.79,0,0,1,7.65-.65c4.08.19,8.65,1.39,10.47,5.83s-2.32,3.09-6,.78-6.89-5.47-3.16-4.76a12.33,12.33,0,0,1,8.23,6.36c1.21,2.62.21,4.72-4.22,3.46-8.89-2.58-10.61-7-1-3.69s.56,8.18-4.48,4.48-6-7.26,1.7-1.26,3.4,6.52-2.55,3.88-5.58-4.92.54-1.62a21.58,21.58,0,0,1,7.17,7,30.14,30.14,0,0,1,2.56,4.54" transform="translate(-6.9 -13.09)"/><path class="cls-1" d="M528.33,400.53s.94-.1,2.34-.15a30.75,30.75,0,0,1,5.35.27c4,.6,8.45,2.24,9.84,6.85.72,2.32,0,3-1.28,2.8a13.06,13.06,0,0,1-4.8-2.65,18.86,18.86,0,0,1-3.92-3.9c-.7-1.06-.52-1.66,1.3-1.12a12.18,12.18,0,0,1,7.53,7.14c.87,2.69-.28,4.72-4.57,3-8.58-3.45-9.86-8.06-.66-3.77s-.23,8.21-4.88,4-5.25-7.84,1.82-1.09,2.73,6.85-2.91,3.62-5.07-5.48.69-1.57a21.66,21.66,0,0,1,6.44,7.67,30.55,30.55,0,0,1,2.1,4.79" transform="translate(-6.9 -13.09)"/><path class="cls-1" d="M510.61,430.3a34.42,34.42,0,0,1,7.71,1c3.91,1,8.21,3.13,9,7.81s-3,2.49-6.11-.51-5.55-6.71-2-5.23a12,12,0,0,1,6.68,7.85c.59,2.77-.75,4.69-4.84,2.53-8.16-4.34-9-9.07-.27-3.84s-1,8.18-5.24,3.51-4.42-8.37,1.91-.9,2,7.12-3.24,3.31-4.48-6,.84-1.49a21.75,21.75,0,0,1,5.61,8.33,27.55,27.55,0,0,1,1.16,3.5c.24.89.34,1.44.34,1.44" transform="translate(-6.9 -13.09)"/><path class="cls-1" d="M489.85,457.94a33.29,33.29,0,0,1,7.54,1.83c3.83,1.46,7.83,4,8.12,8.75s-3.25,2.17-6-1.16-4.8-7.29-1.46-5.44a12.07,12.07,0,0,1,5.8,8.56c.3,2.83-1.23,4.61-5.05,2-7.62-5.21-7.92-10,.13-3.86s-1.9,8.07-5.55,2.94-3.5-8.83,2-.69c2.73,4.09,3,5.94,2.06,6.2s-3.24-1.1-5.65-3.28-3.34-3.78-3.07-4.2,1.71.3,4.1,2.84a20.91,20.91,0,0,1,4.56,8.83,29.83,29.83,0,0,1,.93,5.08" transform="translate(-6.9 -13.09)"/><path class="cls-1" d="M466.17,483a32.63,32.63,0,0,1,7.24,2.65c3.63,1.89,7.3,4.88,7.06,9.66s-3.44,1.81-5.79-1.82-3.94-7.83-.85-5.61a12.16,12.16,0,0,1,4.79,9.2c0,2.87-1.72,4.48-5.21,1.46-6.94-6.05-6.72-10.9.56-3.85,3.65,3.51,2.95,5.48,1,5.88a7.32,7.32,0,0,1-6.86-3.65c-3-5.42-2.34-9.07,2.1-.4s.26,7.31-4,2.39-3-6.81,1.19-1.23a21.1,21.1,0,0,1,3.49,9.33,29.93,29.93,0,0,1,.34,5.19" transform="translate(-6.9 -13.09)"/><path class="cls-1" d="M439.77,505.11a32,32,0,0,1,6.82,3.48c3.36,2.3,6.64,5.71,5.85,10.46s-3.64,1.38-5.5-2.48-3-8.28-.19-5.71a12.31,12.31,0,0,1,3.66,9.75c-.4,2.83-2.36,4.12-5.45.69-6.16-6.91-5.27-11.57,1.09-3.67,3.2,4,2.22,5.76.16,5.87a7.23,7.23,0,0,1-6.33-4.45c-2.37-5.78-1.23-9.33,2.11-.16s-.61,7.35-4.21,1.94-2.11-7.15,1.31-1.1a21.57,21.57,0,0,1,2.34,9.75,30.54,30.54,0,0,1-.29,5.23" transform="translate(-6.9 -13.09)"/><path class="cls-1" d="M410.8,523.53a34.61,34.61,0,0,1,6.38,4.45,16.79,16.79,0,0,1,3.89,4.86,8,8,0,0,1,.53,6.21c-1.49,4.52-3.83.83-5.19-3.26s-1.84-8.51.61-5.58a11.91,11.91,0,0,1,2.31,10c-.75,2.75-2.84,3.84-5.46,0-5.2-7.62-3.75-12.19,1.54-3.54,2.65,4.32,1.46,6-.58,5.89a7.1,7.1,0,0,1-5.68-5.19c-1.61-6.06,0-9.48,2.1.09s-1.52,7.28-4.39,1.45-1.18-7.41,1.43-1a21.08,21.08,0,0,1,1,10,29,29,0,0,1-1,5" transform="translate(-6.9 -13.09)"/><path class="cls-1" d="M379.73,538a33.13,33.13,0,0,1,5.7,5.21c2.65,3.12,4.94,7.27,2.91,11.59s-3.89.38-4.68-3.87-.71-8.73,1.33-5.51a12.15,12.15,0,0,1,1,10.32c-1.11,2.66-3.32,3.5-5.39-.62-4.11-8.24-2.08-12.63,2-3.35,2,4.63.65,6.19-1.35,5.81s-4.58-2.89-4.94-6-.05-5.37.45-5.74,1.24,1.28,1.64,6.18c.71,9.71-2.56,6.84-4.61.67s-.13-7.41,1.57-.68a21,21,0,0,1-.34,10,30,30,0,0,1-1.7,4.92" transform="translate(-6.9 -13.09)"/><path class="cls-1" d="M347.06,548.11A32.49,32.49,0,0,1,352,554c2.18,3.43,3.87,7.85,1.28,11.92s-3.89-.13-4.09-4.43.5-8.79,2.07-5.33a12.24,12.24,0,0,1-.47,10.4c-1.47,2.46-3.8,2.86-5.28-1.51-2.94-8.78-.29-12.71,2.45-2.93,1.39,4.88-.23,6.16-2.17,5.44A7.21,7.21,0,0,1,341.7,561c.1-6.25,2.54-9.05,2,.69s-3.47,6.5-4.64.11.89-7.41,1.64-.49a21.24,21.24,0,0,1-1.71,9.87,30.67,30.67,0,0,1-2.36,4.7" transform="translate(-6.9 -13.09)"/><path class="cls-1" d="M313.29,553.46a34,34,0,0,1,4,6.65,16.27,16.27,0,0,1,1.61,6,8,8,0,0,1-2,5.92c-3.18,3.53-3.84-.8-3.44-5.08s1.74-8.53,2.8-4.86a11.89,11.89,0,0,1-1.92,10.13c-1.8,2.2-4.16,2.35-5-2.19-1.68-9.08,1.48-12.66,2.84-2.61.69,5-1.09,6.1-2.91,5.15a7.1,7.1,0,0,1-3.1-7c1-6.2,3.77-8.69,1.88.92s-4.34,6-4.6-.45,1.91-7.25,1.69-.28a21.38,21.38,0,0,1-3.07,9.56,28.22,28.22,0,0,1-3,4.19" transform="translate(-6.9 -13.09)"/><path class="cls-1" d="M279.08,554.09a33.38,33.38,0,0,1,3.1,7.09c1.16,3.94,1.57,8.66-2,11.77s-3.71-1.26-2.72-5.46,2.9-8.25,3.45-4.47a12,12,0,0,1-3.3,9.8c-2.09,2-4.44,1.83-4.67-2.77-.43-9.21,3.2-12.38,3.16-2.25,0,5.07-1.91,5.92-3.58,4.75s-3-4.37-2.11-7.36c1.81-6,4.93-8.16,1.74,1.15a18.52,18.52,0,0,1-2.18,4.68c-.62.81-1.14,1-1.54.64-.79-.66-1.06-3.26-.77-6.5.59-6.47,2.88-6.81,1.71,0a20.86,20.86,0,0,1-4.34,8.93,29.54,29.54,0,0,1-3.52,3.8" transform="translate(-6.9 -13.09)"/><path class="cls-1" d="M245,550.13a32.72,32.72,0,0,1,2.15,7.4c.63,4,.41,8.77-3.58,11.42s-3.51-1.69-2-5.74,4-7.82,4-4a12.12,12.12,0,0,1-4.57,9.31c-2.33,1.7-4.64,1.28-4.27-3.31.78-9.19,4.81-11.87,3.44-1.85-.67,5-2.68,5.65-4.18,4.26a7.37,7.37,0,0,1-1.11-7.7c2.57-5.67,5.92-7.23,1.57,1.46s-5.74,4.52-4.29-1.81,3.74-6.41,1.69.23a21.05,21.05,0,0,1-5.46,8.33,29.41,29.41,0,0,1-4,3.34" transform="translate(-6.9 -13.09)"/><path class="cls-1" d="M211.63,541.84a32.46,32.46,0,0,1,1.23,7.59c.13,4.08-.68,8.74-5,10.89s-3.27-2.09-1.25-5.92,4.91-7.28,4.49-3.5a12.24,12.24,0,0,1-5.7,8.69c-1.25.7-2.45.88-3.21.33s-1.05-1.94-.59-4.2c1.9-9.07,6.19-11.07,3.61-1.34-1.28,4.89-3.36,5.3-4.64,3.64a7.33,7.33,0,0,1-.16-7.76c3.24-5.32,6.76-6.47,1.37,1.63s-6.24,3.82-4-2.3,4.49-5.91,1.66.43a21.36,21.36,0,0,1-6.43,7.63,29.75,29.75,0,0,1-4.35,2.85" transform="translate(-6.9 -13.09)"/><path class="cls-1" d="M179.34,529.58a32.45,32.45,0,0,1,.37,7.69c-.33,4.07-1.68,8.6-6.18,10.26s-3-2.45-.57-6,5.7-6.68,4.86-3a12.29,12.29,0,0,1-6.64,8c-1.33.56-2.53.6-3.22,0s-.84-2-.12-4.23c1.43-4.41,3.3-7,4.32-7.27s1.25,1.61-.58,6.34-3.93,4.9-5,3.11a7.3,7.3,0,0,1,.7-7.73c3.81-4.93,7.45-5.68,1.19,1.77s-6.63,3.11-3.77-2.73,5.12-5.39,1.6.61a21.4,21.4,0,0,1-7.22,6.87,30.27,30.27,0,0,1-4.62,2.36" transform="translate(-6.9 -13.09)"/><path class="cls-1" d="M148.44,513.84a32.33,32.33,0,0,1-.42,7.7c-.75,4-2.57,8.39-7.2,9.56s-2.72-2.76.06-6.06,6.35-6,5.13-2.45a12.21,12.21,0,0,1-7.42,7.26c-2.74.83-4.77-.32-2.91-4.54,3.75-8.42,8.46-9.62,3.85-.6-2.3,4.51-4.38,4.43-5.34,2.65a7.24,7.24,0,0,1,1.45-7.6c2.16-2.26,4.14-3.48,4.74-3.32s-.21,1.79-3.73,5.2c-7.05,6.75-6.93,2.43-3.48-3.08s5.65-4.85,1.53.76a21.43,21.43,0,0,1-7.9,6.12,30.54,30.54,0,0,1-4.87,1.87" transform="translate(-6.9 -13.09)"/><path class="cls-1" d="M119.57,495.1s0,.92-.25,2.34a31.88,31.88,0,0,1-1.13,5.24c-1.22,3.89-3.52,8-8.29,8.65s-2.35-3.14.82-6.06,7-5.17,5.35-1.77a12,12,0,0,1-8.22,6.28c-2.82.44-4.68-1-2.29-5,4.81-7.87,9.57-8.44,3.86-.06-2.84,4.2-4.89,3.82-5.61,1.9s0-5.37,2.4-7.32c4.84-3.92,8.62-3.95.78,2s-7.2,1.51-3.06-3.49,6.22-4.06,1.41,1a21,21,0,0,1-8.63,5A30,30,0,0,1,91.62,505" transform="translate(-6.9 -13.09)"/><path class="cls-1" d="M93.8,472.75s-.18.9-.58,2.27a36.05,36.05,0,0,1-1.91,5c-1.76,3.65-4.65,7.45-9.45,7.34S80,484,83.55,481.53s7.68-4.14,5.54-1a11.9,11.9,0,0,1-9,5c-2.87,0-4.51-1.68-1.57-5.23,5.93-7.06,10.73-6.94,3.85.5-3.42,3.74-5.41,3.06-5.85,1.06A7.24,7.24,0,0,1,80,475c5.37-3.15,9-2.57.46,2.07s-7.36.41-2.5-3.91,6.77-3.09,1.26,1.15A21.17,21.17,0,0,1,69.89,478a27.61,27.61,0,0,1-3.71.35c-.93,0-1.49,0-1.49,0" transform="translate(-6.9 -13.09)"/><path class="cls-1" d="M72,446.86a34.69,34.69,0,0,1-3.64,6.78c-2.36,3.33-5.79,6.6-10.51,5.7s-1.35-3.67,2.58-5.49,8.29-2.85,5.67-.09a12.07,12.07,0,0,1-9.77,3.49c-2.85-.43-4.13-2.44-.64-5.45,7-6,11.69-5.06,3.67,1.16-4,3.12-5.82,2.11-5.9,0A7.09,7.09,0,0,1,58,446.79c5.85-2.23,9.39-1.07.13,2.11-4.65,1.54-6.55,1.34-6.5.31s1.92-2.84,4.67-4.57c5.49-3.47,7.16-1.9,1,1.36a20.91,20.91,0,0,1-9.77,2,29.29,29.29,0,0,1-5.21-.52" transform="translate(-6.9 -13.09)"/><path class="cls-1" d="M54.87,417.73a34,34,0,0,1-4.77,6.06c-2.91,2.88-6.85,5.52-11.32,3.81s-.68-3.86,3.5-5,8.64-1.38,5.59.9a12,12,0,0,1-10.22,1.74c-2.76-.9-3.67-3.1.29-5.47,8-4.69,12.38-3,3.42,1.78-4.49,2.39-6.1,1.07-5.82-1a7.12,7.12,0,0,1,5.57-5.33c6.15-1.2,9.42.57-.24,2.09-4.84.72-6.64.18-6.46-.81s2.38-2.46,5.38-3.7c6-2.46,7.4-.64.8,1.52a20.83,20.83,0,0,1-10,.3,28.9,28.9,0,0,1-5-1.41" transform="translate(-6.9 -13.09)"/><path class="cls-1" d="M43,386.07a34,34,0,0,1-5.71,5.17c-3.36,2.35-7.69,4.28-11.82,1.85s0-3.92,4.29-4.31,8.76.1,5.36,1.83a12.07,12.07,0,0,1-10.37,0c-2.55-1.36-3.08-3.68,1.21-5.35,8.63-3.29,12.72-.85,3.08,2.32-4.81,1.61-6.19,0-5.58-1.93a7.12,7.12,0,0,1,6.37-4.33c6.27-.15,9.21,2.14-.57,2s-6.64-3.22-.31-4.63,7.4.6.53,1.63A21,21,0,0,1,19.59,379a33,33,0,0,1-3.43-1.48c-.84-.42-1.31-.72-1.31-.72" transform="translate(-6.9 -13.09)"/><path class="cls-1" d="M36.38,352.73s-.7.61-1.84,1.44A33,33,0,0,1,30,357c-3.66,1.8-8.24,3-12,0s.64-3.87,4.92-3.59,8.61,1.47,5,2.64a12.08,12.08,0,0,1-10.24-1.61c-2.27-1.74-2.5-4.09,2-5.08,9-1.95,12.72,1.11,2.71,2.75-5,.84-6.14-.9-5.25-2.75s3.9-3.72,7-3.31c6.16.8,8.76,3.53-.91,1.92s-6.07-4.18.41-4.63,7.25,1.71.3,1.69a21.15,21.15,0,0,1-9.61-2.81A28.72,28.72,0,0,1,10,339.3" transform="translate(-6.9 -13.09)"/><path class="cls-1" d="M34.76,318.56a33.56,33.56,0,0,1-7,3.31c-3.86,1.27-8.61,1.81-11.83-1.7s1.14-3.74,5.37-2.87,8.34,2.66,4.58,3.32a12.08,12.08,0,0,1-9.9-3c-2.05-2-1.92-4.38,2.69-4.75,9.21-.7,12.41,2.84,2.28,3.1-5.07.14-6-1.74-4.79-3.44a7.16,7.16,0,0,1,7.35-2.33c6,1.63,8.2,4.69-1.14,1.78s-5.47-4.95,1-4.53,6.93,2.67.05,1.71a21.19,21.19,0,0,1-9.12-4.05,29.21,29.21,0,0,1-3.94-3.41" transform="translate(-6.9 -13.09)"/><path class="cls-1" d="M37.61,284.27a34.23,34.23,0,0,1-7.34,2.43c-4,.78-8.74.72-11.54-3.16s1.6-3.55,5.69-2.18,7.94,3.67,4.12,3.86A12.05,12.05,0,0,1,19.1,281c-1.77-2.25-1.39-4.57,3.24-4.37,9.24.42,12,4.33,1.91,3.35-5.05-.48-5.72-2.45-4.35-4a7.16,7.16,0,0,1,7.58-1.42c5.8,2.34,7.56,5.65-1.35,1.62s-4.84-5.56,1.55-4.37,6.57,3.49-.15,1.7A21.28,21.28,0,0,1,19,268.41a29.43,29.43,0,0,1-3.5-3.84" transform="translate(-6.9 -13.09)"/><path class="cls-1" d="M44.51,250.45A33.27,33.27,0,0,1,36.94,252c-4.06.32-8.78-.29-11.09-4.46s2-3.35,5.9-1.51,7.47,4.55,3.66,4.3a12.11,12.11,0,0,1-8.91-5.27c-1.5-2.45-.83-4.69,3.73-4,9.12,1.47,11.42,5.68,1.5,3.54-5-1.05-5.37-3.08-3.86-4.46s5-2.05,7.7-.55c5.46,3,6.88,6.49-1.54,1.46s-4.15-6.07,2-4.16,6.15,4.22-.33,1.68a21.32,21.32,0,0,1-7.94-6.07,29.15,29.15,0,0,1-3-4.21" transform="translate(-6.9 -13.09)"/><path class="cls-1" d="M55.27,217.75a33.32,33.32,0,0,1-7.69.63c-4.08-.19-8.68-1.34-10.48-5.77s2.41-3.09,6-.79,6.86,5.42,3.12,4.72a12.09,12.09,0,0,1-8.21-6.32c-1.16-2.62-.25-4.8,4.2-3.5,8.86,2.63,10.61,7.06,1,3.72-4.78-1.66-5-3.75-3.27-4.93a7.14,7.14,0,0,1,7.7.44c5.06,3.68,6,7.29-1.7,1.25-3.84-3-4.65-4.72-3.79-5.26s3.41.05,6.36,1.4c5.92,2.71,5.54,5-.55,1.62a20.85,20.85,0,0,1-7-7.09,28.67,28.67,0,0,1-2.4-4.65" transform="translate(-6.9 -13.09)"/><path class="cls-1" d="M70.15,188.68s-.86-.11-2.21-.37-3.21-.59-5.17-1.14c-3.89-1.13-8.28-3-8.94-8a3.58,3.58,0,0,1,.37-2.49,1.29,1.29,0,0,1,1.51-.34c1.24.38,2.82,1.85,4.26,3.46,2.82,3.24,5.34,6.87,1.87,5.29s-6.06-5.15-6.35-8.19a5.32,5.32,0,0,1,.17-2,1.59,1.59,0,0,1,.71-1.09c.74-.42,2.05-.23,4,.95,4,2.34,6.13,4.7,6.15,5.83s-2,.95-6.05-2.05-3.8-4.9-2-5.47a7.56,7.56,0,0,1,7.36,2.22c4.17,4.69,4,8.66-1.94.86-3-3.86-3.58-5.56-2.65-5.88s3.31.75,6,2.61c5.35,3.72,4.4,6-.87,1.49a24,24,0,0,1-5.69-8.18,34.6,34.6,0,0,1-1.77-4.75" transform="translate(-6.9 -13.09)"/><path class="cls-1" d="M91.07,158.92a33,33,0,0,1-7.67-1.09c-3.93-1.11-8.1-3.34-8.87-8s3-2.43,6.06.62,5.44,6.85,2,5.31a12.22,12.22,0,0,1-6.55-8c-.56-2.79.76-4.68,4.83-2.45,8.1,4.45,8.81,9.21.23,3.84s1.16-8.14,5.3-3.42,4.27,8.42-1.93.86-1.91-7.11,3.32-3.24,4.38,6-.88,1.47a21.49,21.49,0,0,1-5.47-8.36,30.66,30.66,0,0,1-1.46-5" transform="translate(-6.9 -13.09)"/><path class="cls-1" d="M112.2,131.49s-.93-.12-2.31-.41a31.32,31.32,0,0,1-5.15-1.51c-3.79-1.51-7.75-4.1-8-8.89s3.29-2.12,6,1.24,4.69,7.36,1.4,5.48a12.06,12.06,0,0,1-5.68-8.67c-.24-2.84,1.35-4.58,5.12-1.91,7.51,5.37,7.72,10.15-.23,3.85-4-3.14-3.45-5.15-1.48-5.73a7.12,7.12,0,0,1,7.12,2.92c3.59,5.13,3.31,8.88-2,.64-2.64-4.15-2.87-6-1.87-6.21s3.22,1.17,5.57,3.41c4.72,4.47,3.6,6.49-1.06,1.33a20.93,20.93,0,0,1-4.36-9,30,30,0,0,1-.8-5.16" transform="translate(-6.9 -13.09)"/><path class="cls-1" d="M136.35,107.52s-.9-.28-2.22-.77a33.35,33.35,0,0,1-4.84-2.27c-3.51-2.06-7-5.2-6.6-10s3.61-1.59,5.73,2.14,3.49,8,.54,5.62a12,12,0,0,1-4.29-9.43c.21-2.84,2.07-4.33,5.37-1.1,6.57,6.49,6.05,11.23-.82,3.77-3.46-3.71-2.61-5.62-.57-5.89a7.05,7.05,0,0,1,6.57,4c2.73,5.65,1.88,9.29-2.08.32-1.94-4.51-1.9-6.41-.86-6.45s3,1.68,5,4.27c3.92,5.18,2.49,7-1.28,1.13a20.67,20.67,0,0,1-2.82-9.55,29.38,29.38,0,0,1,.08-5.23" transform="translate(-6.9 -13.09)"/><path class="cls-1" d="M163.89,88.14a34.66,34.66,0,0,1-6.39-4.26c-3.1-2.67-6.05-6.38-4.71-11s3.79-1,5.23,3.08,2.06,8.52-.45,5.66A12,12,0,0,1,155,71.56c.67-2.86,2.82-3.91,5.49-.14C165.8,79,164.4,83.5,159,75c-2.74-4.29-1.54-6,.54-5.86a7.19,7.19,0,0,1,5.76,5.17c1.64,6,.13,9.4-2.12-.09-1.08-4.77-.67-6.6.34-6.48s2.62,2.16,4.07,5.06c2.91,5.81,1.22,7.37-1.43.93a21.09,21.09,0,0,1-1.07-10,25.52,25.52,0,0,1,.66-3.65c.23-.9.41-1.44.41-1.44" transform="translate(-6.9 -13.09)"/><path class="cls-1" d="M194.41,74.15l-.5-.41-1.28-1.1a33,33,0,0,1-3.7-3.84c-2.53-3.18-4.74-7.36-2.58-11.71,1.07-2.21,2.11-2.18,2.89-1.18a13,13,0,0,1,1.69,5.22,19.39,19.39,0,0,1,.2,5.51c-.21,1.25-.74,1.56-1.71-.07a11.66,11.66,0,0,1-1.51-5.43,10.64,10.64,0,0,1,.88-4.91c1.23-2.57,3.52-3.28,5.43.93,3.79,8.42,1.6,12.64-2.14,3.2-1.88-4.71-.4-6.18,1.61-5.68a7.09,7.09,0,0,1,4.69,6.11c.51,6.25-1.6,9.32-2.06-.46-.18-4.9.56-6.64,1.52-6.35s2.17,2.59,3.07,5.72c1.78,6.24-.17,7.49-1.58.66a20.4,20.4,0,0,1,.81-10,27.84,27.84,0,0,1,2-4.79" transform="translate(-6.9 -13.09)"/><path class="cls-1" d="M227.13,66s-.63-.71-1.5-1.8a32.17,32.17,0,0,1-3-4.43c-1.94-3.57-3.35-8.08-.48-12,1.45-2,2.46-1.77,3-.65a12.9,12.9,0,0,1,.76,5.43,19.48,19.48,0,0,1-.77,5.46c-.43,1.2-1,1.41-1.67-.36A11.66,11.66,0,0,1,223,52a10.79,10.79,0,0,1,1.72-4.69c1.66-2.31,4-2.6,5.18,1.87,2.28,9-.62,12.72-2.66,2.78-1-5,.67-6.15,2.56-5.31a7.12,7.12,0,0,1,3.57,6.83c-.57,6.24-3.18,8.9-1.95-.81s4-6.29,4.63.18-1.44,7.34-1.67.38a21.37,21.37,0,0,1,2.46-9.74,29.29,29.29,0,0,1,2.73-4.38" transform="translate(-6.9 -13.09)"/><path class="cls-1" d="M261.07,63.26a33,33,0,0,1-3.49-6.86c-1.38-3.85-2.07-8.54,1.36-11.89s3.77,1,3,5.26-2.42,8.43-3.19,4.7a12.17,12.17,0,0,1,2.74-10c2-2.11,4.34-2.13,4.82,2.52s-.16,7.72-1,8.41-1.79-1-2.06-6,1.58-6.09,3.31-4.9a7.29,7.29,0,0,1,2.52,7.34c-1.47,6.06-4.47,8.23-1.81-1.13s4.81-5.54,4.56,1-2.49,7-1.71.1A21.28,21.28,0,0,1,274,42.5a29.92,29.92,0,0,1,3.3-4" transform="translate(-6.9 -13.09)"/><path class="cls-1" d="M295.39,65.2s-.42-.83-1-2.17A31.38,31.38,0,0,1,292.78,58c-.89-4-.95-8.69,2.86-11.65S299.23,47.87,298,52s-3.45,7.95-3.75,4.2a12,12,0,0,1,4-9.53c2.21-1.78,4.52-1.44,4.45,3.18-.17,9.25-4,12.09-3.3,2s7.77-2.74,5.5,3.11-5.45,7.71-1.66-1.3,5.42-5,4.41,1.41-3.3,6.7-1.71-.08a21.71,21.71,0,0,1,4.88-8.76,34.93,34.93,0,0,1,2.6-2.69,14.75,14.75,0,0,1,1.13-.95" transform="translate(-6.9 -13.09)"/><path class="cls-1" d="M329.66,71.09a31.24,31.24,0,0,1-2-7.52c-.49-4,0-8.78,4-11.26,8.06-5-2.61,17.29-2.41,9.67s9.88-14.81,9-5.61-5.07,11.71-3.44,1.7,7.89-2.13,5.22,3.53-6.1,7.25-1.56-1.43,5.75-4.58,4.3,1.76-3.82,6.42-1.7-.22a22.31,22.31,0,0,1,5.46-8.37A30,30,0,0,1,350.48,50" transform="translate(-6.9 -13.09)"/><path class="cls-1" d="M364.29,79.19a31.14,31.14,0,0,1-1.69-7.58c-.35-4.08.28-8.77,4.4-11.11,8.23-4.69-3.2,17.18-2.73,9.58s10.38-14.48,9.17-5.32-5.48,11.53-3.51,1.59,8-1.87,5.1,3.7-6.35,7-1.5-1.48,5.91-4.38,4.23,1.9-4,6.27-1.69-.28a22,22,0,0,1,5.76-8.14,30.83,30.83,0,0,1,4-3.2" transform="translate(-6.9 -13.09)"/><path class="cls-1" d="M398.43,88.59A31.6,31.6,0,0,1,397.08,81c-.16-4.09.67-8.74,4.9-10.92,8.47-4.35-4,17-3.16,9.45s11.07-14.07,9.41-4.91-6,11.22-3.57,1.41,8-1.42,4.9,4-6.66,6.68-1.42-1.57,6.12-4,4.12,2.14-4.34,6.06-1.67-.37a21.92,21.92,0,0,1,6.17-7.85,30.88,30.88,0,0,1,4.21-3" transform="translate(-6.9 -13.09)"/><path class="cls-1" d="M431.78,99.76a32.07,32.07,0,0,1-.83-7.7c.09-4.1,1.2-8.7,5.56-10.59s3.11,2.31.91,6-5.28,7-4.66,3.21a12.19,12.19,0,0,1,6.14-8.34c2.56-1.25,4.72-.43,3.58,4-2.29,8.94-6.75,10.86-3.67,1.2,1.52-4.83,3.58-5.08,4.81-3.46a7.3,7.3,0,0,1-.18,7.74c-3.48,5.17-7.08,6.2-1.31-1.68s6.4-3.57,3.95,2.45-4.75,5.72-1.64-.49a21.73,21.73,0,0,1,6.74-7.38,30.11,30.11,0,0,1,4.44-2.69" transform="translate(-6.9 -13.09)"/><path class="cls-1" d="M463.78,113.33a32.77,32.77,0,0,1-.08-7.71c.48-4.06,2-8.55,6.53-10s2.91,2.58.35,6.06-5.92,6.46-4.95,2.78a12.23,12.23,0,0,1,6.91-7.74c2.71-1,4.77.12,3.18,4.45-3.24,8.66-7.79,10.07-3.77.75,2-4.66,4.07-4.66,5.13-2.89a7.18,7.18,0,0,1-1,7.66c-4,4.8-7.68,5.47-1.13-1.78s6.8-2.91,3.69,2.8-5.35,5.21-1.58-.65a21.31,21.31,0,0,1,7.53-6.6,29.13,29.13,0,0,1,4.75-2.08" transform="translate(-6.9 -13.09)"/><path class="cls-1" d="M493.21,130.35a34.65,34.65,0,0,1,1.14-7.61c1.1-3.94,3.2-8.19,7.95-8.93s2.52,3-.57,6-6.83,5.49-5.3,2a12,12,0,0,1,8-6.58c2.86-.6,4.74.93,2.45,4.92s-4.67,6.15-5.72,6.26-.85-1.86,1.88-6.14,4.77-3.92,5.54-2a7.06,7.06,0,0,1-2.24,7.38c-2.4,2-4.52,3-5.07,2.82s.39-1.75,4.25-4.76,5.73-3.4,6.06-2.44-.89,3.31-2.91,5.84c-4.06,5-6.16,4.17-1.44-.93a20,20,0,0,1,8.61-5.07,27.65,27.65,0,0,1,5.14-1.12" transform="translate(-6.9 -13.09)"/><path class="cls-1" d="M517.59,152a39.1,39.1,0,0,1,3.1-7c2.06-3.53,5.08-7.21,9.89-6.68s1.71,3.62-2.07,5.74-8,3.58-5.62.59a11.72,11.72,0,0,1,9.42-4.32c3,.18,4.4,2.25,1.12,5.46s-6.18,4.63-7.21,4.47-.3-2,3.46-5.42,5.66-2.49,5.9-.39A6.91,6.91,0,0,1,531.4,151c-2.88,1.26-5.19,1.69-5.65,1.33s.85-1.57,5.4-3.41,6.5-1.66,6.5-.6-1.8,2.93-4.48,4.76c-5.37,3.66-7,2.23-1.08-1.31a19.46,19.46,0,0,1,9.73-2.31,28.79,28.79,0,0,1,3.81.26c.93.15,1.49.29,1.49.29" transform="translate(-6.9 -13.09)"/><path class="cls-1" d="M533.44,179.11a40.55,40.55,0,0,1,5.35-5.49,17.2,17.2,0,0,1,5.3-3.22,7.82,7.82,0,0,1,6.28.33c2.17,1.11,2.27,2.15,1.27,3a12.65,12.65,0,0,1-5.2,1.74c-4.28.68-8.72.62-5.47-1.38a11.63,11.63,0,0,1,10.33-.81c2.72,1.22,3.35,3.64-.84,5.52s-7.4,2.2-8.32,1.69.41-2,5.12-3.87,6.17-.38,5.68,1.67a6,6,0,0,1-2.08,3,7.31,7.31,0,0,1-4.09,1.6c-3.11.17-5.45-.21-5.76-.71s1.35-1.18,6.25-1.33,6.62.71,6.29,1.69-2.69,2.12-5.84,2.92c-6.3,1.58-7.4-.34-.57-1.61a19.92,19.92,0,0,1,10,1.16,24.82,24.82,0,0,1,3.44,1.53c.84.44,1.32.75,1.32.75" transform="translate(-6.9 -13.09)"/><path class="cls-1" d="M539.77,210.85a35.18,35.18,0,0,1,6.61-3.88c3.75-1.63,8.38-2.69,12,.54,1.8,1.64,1.61,2.61.42,3.07a13.28,13.28,0,0,1-5.48.3c-4.28-.49-8.56-1.86-4.89-2.87a12.09,12.09,0,0,1,10.17,2.08c2.2,1.76,2.35,4-2.18,4.88-9.07,1.82-12.69-1.49-2.62-2.79s4.32,6.86-1.87,6-8.71-3.75.91-1.91,6.06,4.11-.42,4.63-7.25-1.76-.29-1.69,14,5.39,14,5.39" transform="translate(-6.9 -13.09)"/><path class="cls-1" d="M542.42,246.62a31.08,31.08,0,0,1,6.69-3.92c3.78-1.57,8.43-2.39,11.93.81,7,6.42-17.33,2.19-9.95.32s17,5.48,7.86,7.12-12.65-1.71-2.58-2.86,4.19,7-2,6-8.61-3.91,1-1.88,5.95,4.3-.54,4.61-7.2-2-.25-1.7a22.12,22.12,0,0,1,9.52,3,31.12,31.12,0,0,1,4.29,2.86" transform="translate(-6.9 -13.09)"/><path class="cls-1" d="M543.8,282a31.59,31.59,0,0,1,6.87-3.58c3.84-1.39,8.54-2,11.88,1.37,6.67,6.77-17.42,1.35-10-.16s16.69,6.32,7.5,7.5-12.53-2.34-2.42-3,3.81,7.26-2.3,5.88-8.41-4.34,1.06-1.84,5.71,4.63-.79,4.58-7.08-2.32-.15-1.71a22,22,0,0,1,9.34,3.53,30.68,30.68,0,0,1,4.13,3.1" transform="translate(-6.9 -13.09)"/><path class="cls-1" d="M543.21,317.16a32.17,32.17,0,0,1,7.07-3.14c3.93-1.15,8.64-1.48,11.79,2.1s-1.27,3.66-5.47,2.69-8.23-2.91-4.47-3.46a12.19,12.19,0,0,1,9.81,3.31c2,2.06,1.82,4.37-2.79,4.64-9.22.53-12.37-3.13-2.24-3.13,5.07,0,5.92,1.87,4.74,3.52a7.27,7.27,0,0,1-7.41,2.19c-6-1.73-8.09-4.87,1.18-1.76s5.4,5-1.09,4.52-6.92-2.78,0-1.72a21.92,21.92,0,0,1,9.09,4.15,30.31,30.31,0,0,1,3.9,3.39" transform="translate(-6.9 -13.09)"/><path class="cls-1" d="M540.18,352a32.16,32.16,0,0,1,7.31-2.57c4-.85,8.74-.84,11.57,3s-1.53,3.57-5.64,2.27-8-3.54-4.2-3.8a12.16,12.16,0,0,1,9.52,4.06c1.82,2.22,1.48,4.51-3.15,4.42-9.25-.21-12.05-4.09-2-3.31s2.72,7.76-3.12,5.49-7.69-5.5,1.31-1.66,5,5.43-1.44,4.41-6.67-3.33.1-1.71a21.44,21.44,0,0,1,8.7,4.88,30.28,30.28,0,0,1,3.61,3.72" transform="translate(-6.9 -13.09)"/><path class="cls-1" d="M534.22,386.29a32.53,32.53,0,0,1,7.51-1.85c4.07-.46,8.78,0,11.24,4.06s-1.86,3.41-5.83,1.72-7.63-4.28-3.82-4.17a12.15,12.15,0,0,1,9.1,4.95c1.6,2.38,1,4.65-3.58,4.1-9.18-1.13-11.61-5.25-1.62-3.49s1.93,8-3.65,5.15-7.12-6.21,1.46-1.52c4.29,2.38,5.39,3.88,4.64,4.55s-3.37.52-6.52-.3c-6.28-1.65-6.28-4,.28-1.69a21.31,21.31,0,0,1,8.16,5.75,30.73,30.73,0,0,1,3.2,4.09" transform="translate(-6.9 -13.09)"/><path class="cls-1" d="M524.72,419.43a33.16,33.16,0,0,1,7.67-.94c4.1,0,8.73,1,10.69,5.34s-2.25,3.19-6,1-7.08-5.15-3.31-4.6a12.11,12.11,0,0,1,8.46,6c1.31,2.57.42,4.76-4.06,3.66-9-2.25-10.89-6.62-1.18-3.66,4.86,1.46,5.09,3.52,3.45,4.77a7.14,7.14,0,0,1-7.71-.11c-5.21-3.46-6.3-7,1.64-1.33,4,2.89,4.88,4.53,4,5.1s-3.42.09-6.43-1.12c-6-2.43-5.73-4.73.5-1.64a21.05,21.05,0,0,1,7.34,6.75,28.77,28.77,0,0,1,2.64,4.5" transform="translate(-6.9 -13.09)"/><path class="cls-1" d="M511.07,450.67a34,34,0,0,1,7.71.22c4.05.62,8.5,2.22,9.81,6.83s-2.7,2.84-6.09.15-6.25-6.13-2.6-5a12.05,12.05,0,0,1,7.49,7.17c.92,2.75-.32,4.79-4.57,3-8.52-3.59-9.77-8.16-.61-3.8,4.59,2.17,4.5,4.25,2.69,5.25a7.14,7.14,0,0,1-7.61-1.28c-4.62-4.22-5.16-7.9,1.83-1.06,3.47,3.46,4.12,5.23,3.2,5.67s-3.39-.44-6.18-2.12c-5.57-3.34-4.92-5.54.75-1.53a20.73,20.73,0,0,1,6.19,7.82,28.52,28.52,0,0,1,1.88,4.88" transform="translate(-6.9 -13.09)"/><path class="cls-1" d="M492.75,479a34.54,34.54,0,0,1,7.54,1.58c3.87,1.32,8,3.66,8.46,8.44s-3.16,2.33-6-.92-5.08-7.13-1.68-5.4a11.94,11.94,0,0,1,6.11,8.37c.43,2.88-1.17,4.68-5,2.17-7.73-5.07-8.15-9.77.09-3.84,4.13,2.95,3.66,5,1.69,5.64a7.08,7.08,0,0,1-7.25-2.63c-3.78-5-3.66-8.7,2-.72,2.79,4,3.09,5.89,2.12,6.17s-3.26-1.06-5.69-3.21c-4.85-4.31-3.84-6.35,1-1.37a20.46,20.46,0,0,1,4.64,8.82,28.68,28.68,0,0,1,.92,5.17" transform="translate(-6.9 -13.09)"/><path class="cls-1" d="M469.63,503.12a35.31,35.31,0,0,1,7.08,3.05,16.57,16.57,0,0,1,4.83,3.94,8,8,0,0,1,1.82,6c-.55,4.8-3.59,1.66-5.74-2.09s-3.57-8-.58-5.61a11.87,11.87,0,0,1,4.34,9.4c-.09,1.43-.6,2.55-1.49,2.89s-2.22-.13-3.88-1.74c-6.57-6.52-6-11.17.83-3.78,3.47,3.71,2.64,5.66.56,5.89a7.12,7.12,0,0,1-6.59-4c-2.71-5.64-1.85-9.23,2.09-.3,1.93,4.5,1.85,6.38.84,6.45s-3-1.65-4.91-4.24c-3.91-5.2-2.53-7,1.24-1.18a20.41,20.41,0,0,1,2.8,9.6,28.21,28.21,0,0,1-.15,5.22" transform="translate(-6.9 -13.09)"/><path class="cls-1" d="M442.18,522.18s.81.42,2,1.19a34.63,34.63,0,0,1,4.31,3.17c3,2.69,5.94,6.43,4.55,11.08s-3.85.87-5.21-3.21-1.89-8.47.55-5.6a11.86,11.86,0,0,1,2.39,10.06c-.77,2.76-2.89,3.88-5.49.07-5.15-7.65-3.74-12.21,1.55-3.56,2.66,4.31,1.45,6-.6,5.91s-4.92-2.24-5.67-5.25c-1.52-6,0-9.46,2.12.14,1,4.79.55,6.58-.46,6.44s-2.59-2.22-4-5.14c-2.82-5.86-1.08-7.36,1.46-.89a20.9,20.9,0,0,1,.89,10,30.31,30.31,0,0,1-.7,3.69c-.23.9-.42,1.43-.42,1.43" transform="translate(-6.9 -13.09)"/><path class="cls-1" d="M411.36,535.73a34.1,34.1,0,0,1,5.47,5.47,16.53,16.53,0,0,1,3,5.45,8.09,8.09,0,0,1-.54,6.23c-2.26,4.23-3.93.19-4.54-4.08s-.35-8.73,1.55-5.42a11.94,11.94,0,0,1,.54,10.33c-1.23,2.58-3.49,3.35-5.39-.89s-2.23-7.37-1.69-8.31,2,.35,3.83,5.07.39,6.24-1.62,5.71a7.21,7.21,0,0,1-4.67-6.18c-.47-6.22,1.68-9.23,2.06.5s-2.87,6.8-4.61.53.2-7.44,1.59-.63a21.23,21.23,0,0,1-.81,10,28.08,28.08,0,0,1-1.3,3.49c-.38.84-.65,1.33-.65,1.33" transform="translate(-6.9 -13.09)"/><path class="cls-1" d="M378.26,544.17a31.59,31.59,0,0,1,4.7,6.18c2,3.52,3.45,8.07.67,11.94-5.52,7.67-4.3-16.95-1.53-9.84s-3.37,17.46-6.11,8.63.15-12.75,2.52-2.89-6.46,5-6.18-1.25,2.82-9,2,.72-3.54,6.44-4.65,0,1.05-7.4,1.66-.46a22.24,22.24,0,0,1-1.82,9.83,31.19,31.19,0,0,1-2.29,4.63" transform="translate(-6.9 -13.09)"/><path class="cls-1" d="M343.27,550a32.32,32.32,0,0,1,4.45,6.36c1.88,3.62,3.08,8.19.18,12-5.85,7.43-3.6-17.1-1.13-9.9s-4.1,17.31-6.47,8.37S341,554.06,343,564s-6.68,4.72-6.13-1.52,3.2-8.9,2,.81-3.82,6.28-4.64-.17,1.36-7.34,1.67-.38a22.21,22.21,0,0,1-2.25,9.74,32,32,0,0,1-2.5,4.53" transform="translate(-6.9 -13.09)"/><path class="cls-1" d="M308.17,554.19a31.6,31.6,0,0,1,4.12,6.59c1.69,3.71,2.68,8.37-.42,11.94-6.22,7.14-2.73-17.27-.64-9.94s-5,17.09-6.87,8.05,1.33-12.69,2.78-2.66-6.92,4.4-6-1.8,3.65-8.75,1.91.9-4.14,6.09-4.62-.39,1.74-7.27,1.69-.31a22,22,0,0,1-2.76,9.62,30.75,30.75,0,0,1-2.76,4.33" transform="translate(-6.9 -13.09)"/><path class="cls-1" d="M273,556.44a31.43,31.43,0,0,1,3.7,6.8c1.47,3.82,2.18,8.5-1.13,11.9s-3.75-.94-3.13-5.21,2.24-8.46,3.09-4.75a12.22,12.22,0,0,1-2.5,10.05c-1.9,2.14-4.2,2.2-4.85-2.37-1.29-9.14,2.11-12.61,2.94-2.51.42,5-1.38,6.06-3.13,5a7.29,7.29,0,0,1-2.78-7.22c1.23-6.1,4.18-8.45,1.85,1.05s-4.54,5.75-4.59-.75,2.2-7.11,1.7-.17a21.82,21.82,0,0,1-3.39,9.38,31.33,31.33,0,0,1-3.05,4.18" transform="translate(-6.9 -13.09)"/><path class="cls-1" d="M238,556.31a32.94,32.94,0,0,1,3.16,7.09c1.18,3.88,1.55,8.64-2,11.78s-3.68-1.27-2.72-5.47,2.87-8.24,3.43-4.46a12.1,12.1,0,0,1-3.25,9.8c-2.06,2-4.38,1.82-4.67-2.79-.55-9.22,3.09-12.38,3.14-2.24s-7.52,3.4-5.73-2.62,4.85-8.16,1.76,1.15c-1.56,4.65-2.83,6-3.62,5.41s-1.12-3.23-.89-6.47c.46-6.48,2.77-6.9,1.71,0a21.39,21.39,0,0,1-4.15,9,30.62,30.62,0,0,1-3.41,3.89" transform="translate(-6.9 -13.09)"/><path class="cls-1" d="M203.41,553.17s.41.83.92,2.17a33.83,33.83,0,0,1,1.52,5.18c.8,4,.73,8.75-3.14,11.54s-3.55-1.62-2.18-5.71,3.65-7.92,3.85-4.11a12,12,0,0,1-4.2,9.44c-2.25,1.75-4.56,1.38-4.38-3.23.4-9.22,4.32-12,3.35-1.93-.47,5.05-2.44,5.71-4,4.38a7.11,7.11,0,0,1-1.44-7.55c2.33-5.82,5.64-7.63,1.63,1.32-2,4.49-3.44,5.69-4.17,5s-.78-3.33-.2-6.53c1.16-6.39,3.47-6.56,1.7.16a21.22,21.22,0,0,1-5.1,8.57,30.35,30.35,0,0,1-3.84,3.5" transform="translate(-6.9 -13.09)"/><path class="cls-1" d="M169.79,546.24a33.56,33.56,0,0,1,1.46,7.56c.27,4.08-.36,8.78-4.58,11.05s-3.35-2-1.45-5.89,4.65-7.43,4.36-3.64a12.14,12.14,0,0,1-5.4,8.87c-2.48,1.52-4.73.72-3.93-3.81,1.66-9.09,5.86-11.3,3.57-1.41-1.12,4.95-3.17,5.31-4.53,3.75a7.14,7.14,0,0,1-.4-7.71c3.11-5.43,6.6-6.74,1.43,1.56s-6.21,4.06-4.13-2.1,4.37-6.08,1.68.35a20.85,20.85,0,0,1-6.28,7.78,28.7,28.7,0,0,1-4.34,2.88" transform="translate(-6.9 -13.09)"/><path class="cls-1" d="M138.11,534.58a34.44,34.44,0,0,1,.13,7.65c-.44,4.06-1.81,8.59-6.39,10.13-2.31.78-3.07.11-2.9-1.18a12.72,12.72,0,0,1,2.47-4.89c2.53-3.45,5.85-6.52,4.91-2.83a12,12,0,0,1-6.84,7.81c-2.69,1-4.83-.15-3.22-4.48s3.6-6.82,4.63-7.11,1.15,1.67-.84,6.34-4.08,4.67-5.17,2.9a6.06,6.06,0,0,1-.68-3.58,7.4,7.4,0,0,1,1.69-4.05c2-2.35,4-3.76,4.55-3.62s-.1,1.79-3.43,5.4-5.08,4.27-5.55,3.36.33-3.4,1.92-6.24c3.18-5.66,5.38-5.1,1.55.7a20.5,20.5,0,0,1-7.65,6.42,29.37,29.37,0,0,1-3.45,1.53c-.88.32-1.43.46-1.43.46" transform="translate(-6.9 -13.09)"/><path class="cls-1" d="M110.12,517.15s-.11.92-.36,2.3a34.59,34.59,0,0,1-1.33,5.16c-1.34,3.84-3.67,8-8.52,8.43-2.43.22-3-.68-2.56-1.86A12.86,12.86,0,0,1,100.9,527c3.29-2.79,7.14-5,5.4-1.61a11.74,11.74,0,0,1-8.43,6c-2.87.3-4.75-1.27-2.14-5.1s5.13-5.74,6.2-5.8.73,1.87-2.3,5.93-5.11,3.6-5.74,1.6a7.08,7.08,0,0,1,2.85-7.2c2.56-1.8,4.73-2.66,5.25-2.39s-.54,1.73-4.61,4.41-6,2.88-6.22,1.89,1.13-3.2,3.38-5.55c4.5-4.69,6.51-3.66,1.36,1a19.8,19.8,0,0,1-9,4.3,28.24,28.24,0,0,1-5.26.62" transform="translate(-6.9 -13.09)"/><path class="cls-1" d="M88.26,493.64a39.75,39.75,0,0,1-3.83,6.61,17.4,17.4,0,0,1-4.41,4.4,7.87,7.87,0,0,1-6.16,1.17c-4.81-1.12-1.26-3.74,2.67-5.47s8.34-2.7,5.66,0a11.75,11.75,0,0,1-9.85,3.27c-2.8-.47-4-2.37-.52-5.36,7.05-6,11.79-4.9,3.66,1.16s-7.15-3.93-1.3-6.17,9.42-1,.12,2.12-7.3-.7-1.86-4.26,7.18-2,1.06,1.35a22.07,22.07,0,0,1-9.72,2.21,31.45,31.45,0,0,1-5.16-.3" transform="translate(-6.9 -13.09)"/><path class="cls-1" d="M69.65,464.11a37.12,37.12,0,0,1-4.37,6.36c-2.69,3-6.47,5.9-11.08,4.53s-.88-3.84,3.21-5.21,8.5-1.91,5.6.56A11.88,11.88,0,0,1,53,472.73c-2.76-.75-3.89-2.85-.09-5.46,7.63-5.18,12.21-3.78,3.58,1.52-4.31,2.67-6,1.48-5.93-.57a7.22,7.22,0,0,1,5.26-5.7c3-.77,5.36-.78,5.76-.33s-1.13,1.42-5.89,2.45-6.59.57-6.46-.44,2.21-2.59,5.13-4c5.86-2.82,7.37-1.1.9,1.46a20.86,20.86,0,0,1-10,.91,26,26,0,0,1-3.65-.72c-.9-.25-1.44-.44-1.44-.44" transform="translate(-6.9 -13.09)"/><path class="cls-1" d="M56.32,433.46a35,35,0,0,1-5.53,5.35c-3.26,2.46-7.51,4.56-11.73,2.27s-.17-3.93,4.12-4.47,8.76-.2,5.43,1.64a12,12,0,0,1-10.37.36c-2.64-1.27-3.21-3.58,1-5.39,8.53-3.57,12.64-1.25,3.12,2.23-4.77,1.76-6.17.24-5.61-1.76a7.13,7.13,0,0,1,6.26-4.53c6.24-.35,9.23,1.85-.54,2s-6.77-3-.47-4.61,7.46.36.61,1.6a21,21,0,0,1-10-1,29,29,0,0,1-4.76-2.05" transform="translate(-6.9 -13.09)"/><path class="cls-1" d="M48.51,400.17a33,33,0,0,1-6.26,4.58c-3.54,2-8.11,3.36-11.94.53s.46-3.87,4.77-3.82,8.66,1.06,5.09,2.41a12.11,12.11,0,0,1-10.27-1.11c-2.35-1.6-2.71-3.89,1.74-5.15,8.89-2.48,12.76.4,2.85,2.59s-4.91-6.63,1.36-6.15,9,3-.76,2-6.33-3.74.1-4.64,7.32,1.25.39,1.66a21.71,21.71,0,0,1-9.73-2.12,30.93,30.93,0,0,1-4.53-2.48" transform="translate(-6.9 -13.09)"/><path class="cls-1" d="M43.92,365.36a31.36,31.36,0,0,1-6.5,4.16c-3.71,1.72-8.33,2.73-12-.34-7.25-6.16,17.22-2.85,9.94-.7a12.33,12.33,0,0,1-10.21-1.82c-2.24-1.74-2.42-4,2.1-5,9-1.95,12.68,1.23,2.66,2.76s-4.42-6.87,1.78-6.06,8.75,3.58-.89,1.92-6.1-4.07.37-4.63,7.27,1.67.31,1.69a22.35,22.35,0,0,1-9.63-2.65A32.06,32.06,0,0,1,17.46,352" transform="translate(-6.9 -13.09)"/></svg>